<svg xmlns="http://www.w3.org/2000/svg" width="362.4" height="61.711" viewBox="0 0 362.4 61.711">
  <g id="Group_10" data-name="Group 10" transform="translate(-74.32 -34.852)">
    <text id="vlaamse_vereniging_voor" data-name="vlaamse vereniging voor" transform="translate(205.044 57.698)" fill="#fff" font-size="11" font-family="Montserrat-Regular, Montserrat" letter-spacing="0.136em"><tspan x="0" y="0">vlaamse vereniging voor</tspan></text>
    <path id="Path_6" data-name="Path 6" d="M228.587,12.144a4.2,4.2,0,0,1-4.346,4.512c-2.786,0-4.194-2.029-4.194-4.512,0-2.453,1.378-4.452,4.194-4.452a4.142,4.142,0,0,1,4.346,4.452m3.089,5.391V5.33h-3.134V7.5A5.9,5.9,0,0,0,223.5,4.982c-3.967,0-6.769,3.1-6.769,7.223,0,4.058,2.71,7.132,6.678,7.132a6.151,6.151,0,0,0,5.133-2.483v1.378c0,3.134-2.165,4.346-4.982,4.346a8.411,8.411,0,0,1-4.906-1.469l-1.348,2.483a11.026,11.026,0,0,0,6.254,1.726c2.514,0,4.936-.591,6.481-2.347,1.242-1.378,1.635-3.15,1.635-5.436m-27.937,2.589V11.841a3.788,3.788,0,0,1,3.922-4c2.423,0,2.938,1.772,2.938,3.362v8.934h3.1V10.478c0-3.331-1.863-5.5-5.1-5.5A5.892,5.892,0,0,0,203.754,7.5V5.33h-3.1V20.124ZM196.531,0h-3.1V2.938h3.1Zm0,5.33h-3.1V20.124h3.1Zm-17,14.794V11.841a3.788,3.788,0,0,1,3.922-4c2.423,0,2.938,1.772,2.938,3.362v8.934h3.1V10.478c0-3.331-1.863-5.5-5.1-5.5A5.892,5.892,0,0,0,179.541,7.5V5.33h-3.1V20.124Zm-16.99,0V11.841a3.788,3.788,0,0,1,3.922-4c2.423,0,2.938,1.772,2.938,3.362v8.934h3.1V10.478c0-3.331-1.862-5.5-5.1-5.5A5.892,5.892,0,0,0,162.552,7.5V5.33h-3.1V20.124Zm-10.827-5.6c0,2.483-1.772,3.528-3.725,3.528-1.529,0-2.71-.651-2.71-2.2s1.151-2,2.741-2.256c1.575-.257,2.847-.257,3.695-1.333Zm5.33,5.466-.333-2.135a1.559,1.559,0,0,1-.818.2c-.727,0-1.045-.394-1.045-1.348V9.948c0-3.558-2.453-4.967-5.951-4.967a10.813,10.813,0,0,0-6.087,1.8l1.242,2.347a8.212,8.212,0,0,1,4.618-1.5c1.378,0,3.013.424,3.013,1.893,0,1.439-1.605,1.635-3.74,1.862-2.544.288-5.784.848-5.784,4.512,0,2.907,2.029,4.573,5.073,4.573a5.794,5.794,0,0,0,4.936-2.317,2.768,2.768,0,0,0,2.968,2.2,4.912,4.912,0,0,0,1.908-.363M139.081,0h-3.1V20.124h3.1V0ZM120.986,12.735c0-2.741,1.5-4.967,4.316-4.967s4.179,2.226,4.179,4.967c0,2.71-1.348,4.936-4.179,4.936-2.8,0-4.316-2.2-4.316-4.936m-3.1-7.4v19.7h3.1V17.989A6.059,6.059,0,0,0,126,20.472c4.164,0,6.769-3.346,6.769-7.753C132.767,8.374,130.208,5,126,5a5.952,5.952,0,0,0-5.012,2.514V5.33ZM98.909,15.067c0-1.666,1.242-2.514,3.15-2.514h2.907v1.862a2.823,2.823,0,0,1-3.1,3.15,2.688,2.688,0,0,1-2.953-2.5m-3.2.182c0,2.907,2.423,5.163,6.148,5.163,3.876,0,6.178-2.332,6.178-5.845V12.538h2.226V9.827H108.04V7.6h-3.074V9.827h-2.741c-2.059,0-2.62-1.287-2.62-2.271a2.347,2.347,0,0,1,2.635-2.3,5.146,5.146,0,0,1,1.136.151l.757-2.468a10.947,10.947,0,0,0-2.256-.288c-2.983,0-5.421,1.484-5.421,4.528a3.884,3.884,0,0,0,2.18,3.755v.045a4.489,4.489,0,0,0-2.922,4.27m-19.882-4a4.088,4.088,0,0,1,8.147,0ZM87.1,12.432C87.1,8.177,84.357,5,79.875,5c-4.649,0-7.45,3.407-7.45,7.813,0,4.376,2.771,7.662,7.753,7.662a8.42,8.42,0,0,0,6.42-2.68l-2.029-1.938a5.693,5.693,0,0,1-4.285,1.862,4.172,4.172,0,0,1-4.543-4.194H87.022a6.785,6.785,0,0,0,.076-1.09M69.684,17.05a2.976,2.976,0,0,1-1.863.651c-1.3,0-2-.712-2-2.2V7.723H70.4V5.33H65.823V1.348H62.689V5.315H60.205V7.723h2.483v7.753a5.239,5.239,0,0,0,.712,3.1,4.369,4.369,0,0,0,4,1.893,5.64,5.64,0,0,0,3.528-1.105Zm-30.92,3.074V11.781A3.614,3.614,0,0,1,42.4,7.829c2.347,0,2.786,1.666,2.786,3.3v8.994h3.1V11.781a3.63,3.63,0,0,1,3.634-3.952c2.347,0,2.786,1.666,2.786,3.3v8.994h3.1V10.4C57.813,7.132,56.087,5,52.846,5a6.216,6.216,0,0,0-5.164,2.816A4.221,4.221,0,0,0,43.367,5,5.568,5.568,0,0,0,38.749,7.45V5.33h-3.1V20.124ZM31.541,0h-3.1V2.938h3.1Zm0,5.33h-3.1V20.124h3.1Zm-10.312,0v8.283a3.8,3.8,0,0,1-3.922,4c-2.453,0-2.938-1.772-2.938-3.362V5.315H11.281v9.646c0,3.331,1.862,5.5,5.1,5.5a5.943,5.943,0,0,0,4.846-2.483v2.135h3.1V5.33ZM9.252,5.557a3.735,3.735,0,0,0-1.984-.515A5.088,5.088,0,0,0,3.1,7.723V5.33H0V20.124H3.1V12.6c0-2.816,1.666-4.452,3.543-4.452a3.477,3.477,0,0,1,1.7.454Z" transform="translate(205.044 60.61)" fill="#00809f"/>
    <path id="Path_7" data-name="Path 7" d="M139.571,30.023c0,4.647-1.184,8.111-5.6,8.111a53.393,53.393,0,0,1-5.357-.395V16.152a33.683,33.683,0,0,1,5.357-.316c4.419,0,5.6,3.306,5.6,8.032Zm15.125,0V23.869c0-13.311-7.8-20.562-20.727-20.562a87.668,87.668,0,0,0-17.65,1.965c-2.367.552-2.833,1.184-2.833,2.525V63.352a1.791,1.791,0,0,0,1.728,1.657h11.835a1.649,1.649,0,0,0,1.578-1.657V50.112a48,48,0,0,0,5.357.473c13.95,0,20.727-8.032,20.727-20.562m-47.2-15.78V4.885a1.712,1.712,0,0,0-1.894-1.578c-8.2,0-13.792.631-18.834,2.28-2.209.71-2.84,1.341-2.84,2.6V48.147a1.862,1.862,0,0,0,1.736,1.728H97.517a1.72,1.72,0,0,0,1.578-1.728V16.152a54.184,54.184,0,0,1,6.541-.316,1.681,1.681,0,0,0,1.894-1.578M78.178,5.351a1.4,1.4,0,0,0-1.412-1.333H63.841a1.854,1.854,0,0,0-1.736,1.649L56.2,34.434c-.158.947-.552,1.42-1.026,1.42s-.789-.473-.947-1.42L48.313,5.666a1.854,1.854,0,0,0-1.736-1.649H33.646A1.326,1.326,0,0,0,32.32,5.351c0,.158.079.237.079.395l9.847,35.782c2.288,8.269,7.646,9.058,12.924,9.058s10.715-.789,13-9.058L78.1,5.745c0-.158.079-.237.079-.395" transform="translate(42 31.555)" fill="#fff"/>
  </g>
</svg>
