<svg id="Layer_1" data-name="Layer 1" 
  xmlns="http://www.w3.org/2000/svg" 
  xmlns:xlink="http://www.w3.org/1999/xlink" viewBox="0 0 191.33 104.67">
  <defs>
    <style>.cls-1{fill:none;}.cls-2{clip-path:url(#clip-path);}.cls-3{fill:#f28c00;}.cls-4{fill:#00809f;}.cls-5{fill:#9d9d9c;}</style>
    <clipPath id="clip-path">
      <rect class="cls-1" x="5" y="3.31" width="182.46" height="97.97"/>
    </clipPath>
  </defs>
  <title>VRP_logo2018</title>
  <g class="cls-2">
    <path class="cls-3" d="M168.25,37.17c0,5.89-1.5,10.28-7.1,10.28a67.67,67.67,0,0,1-6.79-.5V19.59a42.69,42.69,0,0,1,6.79-.4c5.6,0,7.1,4.19,7.1,10.18Zm19.17,0v-7.8c0-16.87-9.89-26.06-26.27-26.06A111.11,111.11,0,0,0,138.78,5.8c-3,.7-3.59,1.5-3.59,3.2V79.41a2.27,2.27,0,0,0,2.19,2.1h15a2.09,2.09,0,0,0,2-2.1V62.63a60.83,60.83,0,0,0,6.79.6c17.68,0,26.27-10.18,26.27-26.06m-59.82-20V5.31a2.17,2.17,0,0,0-2.4-2c-10.39,0-17.48.8-23.87,2.89-2.8.9-3.6,1.7-3.6,3.3V60.14a2.36,2.36,0,0,0,2.2,2.19h15a2.18,2.18,0,0,0,2-2.19V19.59a68.67,68.67,0,0,1,8.29-.4,2.13,2.13,0,0,0,2.4-2M90.44,5.9a1.77,1.77,0,0,0-1.79-1.69H72.27a2.35,2.35,0,0,0-2.2,2.09L62.58,42.76c-.2,1.2-.7,1.8-1.3,1.8s-1-.6-1.2-1.8L52.59,6.3a2.35,2.35,0,0,0-2.2-2.09H34A1.68,1.68,0,0,0,32.32,5.9c0,.2.1.3.1.5L44.9,51.75c2.9,10.48,9.69,11.48,16.38,11.48s13.58-1,16.48-11.48L90.34,6.4c0-.2.1-.3.1-.5"/>
    <path class="cls-4" d="M185.41,92.58a2.77,2.77,0,0,1-2.87,3,2.7,2.7,0,0,1-2.77-3,2.67,2.67,0,0,1,2.77-2.94,2.74,2.74,0,0,1,2.87,2.94m2.05,3.56V88.08h-2.07v1.43a3.9,3.9,0,0,0-3.33-1.66,4.48,4.48,0,0,0-4.47,4.77A4.41,4.41,0,0,0,182,97.33a4.06,4.06,0,0,0,3.39-1.64v.91c0,2.07-1.43,2.87-3.29,2.87a5.51,5.51,0,0,1-3.24-1l-.9,1.64a7.34,7.34,0,0,0,4.14,1.14,5.58,5.58,0,0,0,4.28-1.55,5,5,0,0,0,1.08-3.59M169,97.85V92.38a2.51,2.51,0,0,1,2.59-2.65c1.6,0,1.93,1.18,1.93,2.22v5.9h2.05V91.48c0-2.19-1.23-3.63-3.37-3.63a3.89,3.89,0,0,0-3.2,1.66V88.08h-2v9.77Zm-4.77-13.29h-2v1.93h2Zm0,3.52h-2v9.77h2ZM153,97.85V92.38a2.51,2.51,0,0,1,2.59-2.65c1.6,0,1.93,1.18,1.93,2.22v5.9h2.05V91.48c0-2.19-1.23-3.63-3.37-3.63a3.89,3.89,0,0,0-3.2,1.66V88.08H151v9.77Zm-11.23,0V92.38a2.52,2.52,0,0,1,2.59-2.65c1.6,0,1.94,1.18,1.94,2.22v5.9h2V91.48c0-2.19-1.22-3.63-3.37-3.63a3.89,3.89,0,0,0-3.2,1.66V88.08h-2v9.77Zm-7.15-3.7a2.22,2.22,0,0,1-2.45,2.32c-1,0-1.79-.43-1.79-1.45s.76-1.32,1.81-1.49,1.88-.17,2.43-.87Zm3.52,3.61-.22-1.42a.94.94,0,0,1-.54.13c-.48,0-.69-.26-.69-.89V91.13c0-2.35-1.62-3.28-3.93-3.28a7.16,7.16,0,0,0-4,1.19l.82,1.55a5.42,5.42,0,0,1,3-1c.92,0,2,.28,2,1.25s-1.07,1.08-2.48,1.23c-1.68.19-3.82.56-3.82,3,0,1.92,1.34,3,3.35,3a3.83,3.83,0,0,0,3.26-1.52,1.83,1.83,0,0,0,2,1.45,3.36,3.36,0,0,0,1.26-.24M126.3,84.56h-2V97.85h2Zm-12,8.41c0-1.8,1-3.27,2.85-3.27S120,91.17,120,93s-.9,3.26-2.76,3.26-2.85-1.45-2.85-3.26m-2-4.89v13h2V96.44a4,4,0,0,0,3.32,1.63c2.75,0,4.46-2.21,4.46-5.12s-1.69-5.1-4.46-5.1a4,4,0,0,0-3.32,1.66V88.08ZM99.78,94.51c0-1.11.82-1.67,2.08-1.67h1.92v1.23a1.86,1.86,0,0,1-2,2.08,1.76,1.76,0,0,1-2-1.64m-2.11.12c0,1.92,1.6,3.41,4.06,3.41s4.08-1.53,4.08-3.85V92.84h1.47V91.05h-1.47V89.58h-2v1.47H102c-1.36,0-1.73-.85-1.73-1.5A1.55,1.55,0,0,1,102,88a3.75,3.75,0,0,1,.75.09l.5-1.63a7.23,7.23,0,0,0-1.49-.19c-2,0-3.59,1-3.59,3a2.56,2.56,0,0,0,1.44,2.48v0a3,3,0,0,0-1.93,2.83M84.53,92a2.7,2.7,0,0,1,5.38,0Zm7.45.78a4.6,4.6,0,0,0-4.77-4.92c-3.07,0-4.91,2.26-4.91,5.16a4.77,4.77,0,0,0,5.12,5.06,5.56,5.56,0,0,0,4.24-1.77L90.32,95a3.76,3.76,0,0,1-2.83,1.23,2.76,2.76,0,0,1-3-2.77h7.45a6.07,6.07,0,0,0,0-.71m-11.51,3a2,2,0,0,1-1.23.43c-.85,0-1.32-.47-1.32-1.45V89.66h3V88.08h-3V85.45H75.86v2.63H74.22v1.58h1.64v5.12a3.54,3.54,0,0,0,.46,2A2.9,2.9,0,0,0,79,98.07a3.76,3.76,0,0,0,2.33-.72Zm-20.42,2V92.34a2.39,2.39,0,0,1,2.4-2.61c1.55,0,1.85,1.1,1.85,2.18v5.94h2V92.34a2.4,2.4,0,0,1,2.4-2.61c1.55,0,1.85,1.1,1.85,2.18v5.94h2V91.43c0-2.16-1.14-3.58-3.28-3.58A4.11,4.11,0,0,0,66,89.71a2.78,2.78,0,0,0-2.85-1.86,3.69,3.69,0,0,0-3.05,1.62V88.08H58v9.77ZM55.29,84.56h-2v1.93h2Zm0,3.52h-2v9.77h2Zm-6.82,0v5.47a2.5,2.5,0,0,1-2.59,2.64C44.26,96.19,44,95,44,94v-5.9H41.9v6.36c0,2.2,1.23,3.63,3.37,3.63a3.92,3.92,0,0,0,3.2-1.63v1.41h2.05V88.08Zm-7.91.15a2.43,2.43,0,0,0-1.3-.34,3.4,3.4,0,0,0-2.76,1.77V88.08h-2v9.77h2v-5c0-1.86,1.1-2.94,2.35-2.94a2.26,2.26,0,0,1,1.11.3Z"/>
    <path class="cls-5" d="M29.77,96a.46.46,0,0,1-.51.46h-.79v-.93h.78a.47.47,0,0,1,.52.47m.46,1.86-.63-1.14a.79.79,0,0,0-.34-1.53H28.09v2.67h.38V96.77h.76l.57,1.08ZM27,96.51a.92.92,0,1,1-.91-1,.92.92,0,0,1,.91,1m.4,0a1.31,1.31,0,1,0-1.31,1.39,1.29,1.29,0,0,0,1.31-1.39m-3.55,0a.92.92,0,1,1-.91-1,.92.92,0,0,1,.91,1m.4,0a1.31,1.31,0,1,0-1.31,1.39,1.29,1.29,0,0,0,1.31-1.39m-3.37-1.33L20,97.41l-.82-2.23h-.4l1,2.67h.38l1-2.67Z"/>
    <path class="cls-5" d="M29,91.92a.86.86,0,0,1,.75.4l.3-.2A1.22,1.22,0,0,0,29,91.58,1.27,1.27,0,0,0,27.68,93,1.29,1.29,0,0,0,29,94.35a1.18,1.18,0,0,0,1.23-1.22c0-.09,0-.15,0-.2H29v.33h.87A.81.81,0,0,1,29,94a1.06,1.06,0,0,1,0-2.09M27,94.3V91.63H26.6v2.15l-1.34-2.15h-.48V94.3h.36V92.1l1.38,2.2ZM23.9,91.63h-.38V94.3h.38Zm-2.3.29a.85.85,0,0,1,.75.4l.3-.2a1.22,1.22,0,0,0-1-.54A1.27,1.27,0,0,0,20.3,93a1.29,1.29,0,0,0,1.31,1.39,1.18,1.18,0,0,0,1.23-1.22,1.09,1.09,0,0,0,0-.2H21.6v.33h.87a.8.8,0,0,1-.87.75,1.06,1.06,0,0,1,0-2.09m-2-.29h-.38V94.3h.38ZM18.33,94.3V91.63H18v2.15l-1.34-2.15h-.49V94.3h.37V92.1l1.38,2.2Zm-2.91,0V94H13.86v-.91h1.32v-.32H13.86V92h1.56v-.34H13.49V94.3Zm-3.07-1.86a.46.46,0,0,1-.51.46h-.79V92h.78a.47.47,0,0,1,.52.47m.46,1.86-.62-1.14a.79.79,0,0,0-.35-1.53H10.67V94.3h.38V93.22h.77l.57,1.08ZM10,94.3V94H8.39v-.91H9.71v-.32H8.39V92H10v-.34H8V94.3Zm-2.9-2.67-.83,2.23L5.4,91.63H5L6,94.3h.39l1-2.67Z"/>
    <path class="cls-5" d="M30.17,90.75V90.4H28.62v-.9h1.32v-.32H28.62v-.76h1.55v-.34H28.24v2.67ZM26.49,88c-.54,0-.94.28-.94.76s.43.66.88.75.72.15.72.47-.24.46-.6.46a.93.93,0,0,1-.81-.42l-.31.2a1.22,1.22,0,0,0,1.09.55c.62,0,1-.33,1-.82s-.47-.68-1-.8c-.34-.08-.62-.14-.62-.43s.26-.39.54-.39a.88.88,0,0,1,.73.35l.29-.21a1.22,1.22,0,0,0-1-.47m-1.72,2.72V88.08h-.55l-.85,2.2-.84-2.2H22v2.67h.36V88.47l.88,2.28h.32l.87-2.28v2.28Zm-4.2-1.07h-.95l.48-1.24Zm.83,1.07-1.09-2.67H19.9l-1.09,2.67h.4l.28-.74H20.7l.28.74Zm-3.66-1.07h-.95l.48-1.24Zm.83,1.07-1.09-2.67h-.42L16,90.75h.39l.29-.74h1.2l.29.74Zm-2.86,0V90.4H14.23V88.08h-.38v2.67Zm-2.82-2.67-.83,2.23-.81-2.23h-.41l1,2.67h.39l1-2.67Z"/>
  </g>
</svg>