<svg xmlns="http://www.w3.org/2000/svg" preserveAspectRatio="xMinYMin slice" viewBox="0 0 177.382 89.437">
  <path id="Path_26" data-name="Path 26" d="M187.758,42.031c0,6.735-1.715,11.755-8.119,11.755a77.381,77.381,0,0,1-7.764-.572V21.928a48.817,48.817,0,0,1,7.764-.457c6.4,0,8.119,4.791,8.119,11.641Zm21.921,0V33.112c0-19.291-11.309-29.8-30.04-29.8a127.056,127.056,0,0,0-25.58,2.847c-3.431.8-4.105,1.715-4.105,3.659V90.333a2.6,2.6,0,0,0,2.5,2.4H169.61a2.39,2.39,0,0,0,2.287-2.4V71.145a69.559,69.559,0,0,0,7.764.686c20.217,0,30.04-11.641,30.04-29.8m-68.4-22.87V5.6a2.481,2.481,0,0,0-2.744-2.287c-11.881,0-19.989.915-27.3,3.3-3.2,1.029-4.117,1.944-4.117,3.774V68.3a2.7,2.7,0,0,0,2.516,2.5h17.153a2.493,2.493,0,0,0,2.287-2.5V21.928a78.528,78.528,0,0,1,9.48-.457,2.436,2.436,0,0,0,2.744-2.287M98.781,6.274a2.024,2.024,0,0,0-2.047-1.933H78a2.687,2.687,0,0,0-2.516,2.39L66.923,48.423c-.229,1.372-.8,2.058-1.487,2.058s-1.144-.686-1.372-2.058L55.5,6.731a2.687,2.687,0,0,0-2.516-2.39H34.241A1.921,1.921,0,0,0,32.32,6.274c0,.229.114.343.114.572L46.705,58.7c3.316,11.984,11.081,13.128,18.731,13.128S80.965,70.688,84.281,58.7L98.667,6.845c0-.229.114-.343.114-.572" transform="translate(-32.32 -3.297)"/>
</svg>
