<svg xmlns="http://www.w3.org/2000/svg" 
  xmlns:xlink="http://www.w3.org/1999/xlink" viewBox="0 0 35.622 19.374">
  <defs>
    <clipPath id="a">
      <rect width="35.622" height="19.374" fill="none"/>
    </clipPath>
  </defs>
  <g clip-path="url(#a)">
    <rect width="35.622" height="19.374" fill="#f28c00"/>
    <path d="M57.053,9.461c0,1.072-.273,1.871-1.292,1.871a12.312,12.312,0,0,1-1.235-.091V6.262a7.768,7.768,0,0,1,1.235-.073c1.019,0,1.292.762,1.292,1.852Zm3.488,0V8.041c0-3.07-1.8-4.742-4.78-4.742a20.217,20.217,0,0,0-4.07.453c-.546.127-.653.273-.653.582V17.146a.413.413,0,0,0,.4.382h2.729a.38.38,0,0,0,.364-.382V14.093a11.068,11.068,0,0,0,1.235.109c3.217,0,4.78-1.852,4.78-4.742M49.66,5.821V3.663a.395.395,0,0,0-.437-.364,13.626,13.626,0,0,0-4.343.526c-.509.164-.655.309-.655.6V13.64a.429.429,0,0,0,.4.4h2.729a.4.4,0,0,0,.364-.4V6.262a12.5,12.5,0,0,1,1.508-.073.388.388,0,0,0,.437-.364M42.9,3.771a.322.322,0,0,0-.326-.308h-2.98a.428.428,0,0,0-.4.38l-1.363,6.634c-.036.218-.127.328-.237.328s-.182-.109-.218-.328L36.008,3.844a.428.428,0,0,0-.4-.38H32.626a.306.306,0,0,0-.306.308c0,.036.018.055.018.091l2.271,8.252c.528,1.907,1.763,2.089,2.98,2.089s2.471-.182,3-2.089l2.289-8.252c0-.036.018-.055.018-.091" transform="translate(-28.671 0.525)" fill="#fff"/>
  </g>
</svg>